<?xml version="1.0" encoding="utf-8"?>
<svg xmlns="http://www.w3.org/2000/svg" xmlns:xlink="http://www.w3.org/1999/xlink" style="margin: auto; background: rgb(255, 255, 255); display: block; shape-rendering: auto;" width="297px" height="297px" viewBox="0 0 100 100" preserveAspectRatio="xMidYMid">
<g transform="rotate(0 50 50)">
  <rect x="48.5" y="27" rx="0" ry="0" width="3" height="8" fill="#16fc92">
    <animate attributeName="opacity" values="1;0" keyTimes="0;1" dur="1.4492753623188404s" begin="-1.400966183574879s" repeatCount="indefinite"></animate>
  </rect>
</g><g transform="rotate(12 50 50)">
  <rect x="48.5" y="27" rx="0" ry="0" width="3" height="8" fill="#16fc92">
    <animate attributeName="opacity" values="1;0" keyTimes="0;1" dur="1.4492753623188404s" begin="-1.3526570048309177s" repeatCount="indefinite"></animate>
  </rect>
</g><g transform="rotate(24 50 50)">
  <rect x="48.5" y="27" rx="0" ry="0" width="3" height="8" fill="#16fc92">
    <animate attributeName="opacity" values="1;0" keyTimes="0;1" dur="1.4492753623188404s" begin="-1.3043478260869563s" repeatCount="indefinite"></animate>
  </rect>
</g><g transform="rotate(36 50 50)">
  <rect x="48.5" y="27" rx="0" ry="0" width="3" height="8" fill="#16fc92">
    <animate attributeName="opacity" values="1;0" keyTimes="0;1" dur="1.4492753623188404s" begin="-1.256038647342995s" repeatCount="indefinite"></animate>
  </rect>
</g><g transform="rotate(48 50 50)">
  <rect x="48.5" y="27" rx="0" ry="0" width="3" height="8" fill="#16fc92">
    <animate attributeName="opacity" values="1;0" keyTimes="0;1" dur="1.4492753623188404s" begin="-1.2077294685990336s" repeatCount="indefinite"></animate>
  </rect>
</g><g transform="rotate(60 50 50)">
  <rect x="48.5" y="27" rx="0" ry="0" width="3" height="8" fill="#16fc92">
    <animate attributeName="opacity" values="1;0" keyTimes="0;1" dur="1.4492753623188404s" begin="-1.1594202898550723s" repeatCount="indefinite"></animate>
  </rect>
</g><g transform="rotate(72 50 50)">
  <rect x="48.5" y="27" rx="0" ry="0" width="3" height="8" fill="#16fc92">
    <animate attributeName="opacity" values="1;0" keyTimes="0;1" dur="1.4492753623188404s" begin="-1.111111111111111s" repeatCount="indefinite"></animate>
  </rect>
</g><g transform="rotate(84 50 50)">
  <rect x="48.5" y="27" rx="0" ry="0" width="3" height="8" fill="#16fc92">
    <animate attributeName="opacity" values="1;0" keyTimes="0;1" dur="1.4492753623188404s" begin="-1.0628019323671496s" repeatCount="indefinite"></animate>
  </rect>
</g><g transform="rotate(96 50 50)">
  <rect x="48.5" y="27" rx="0" ry="0" width="3" height="8" fill="#16fc92">
    <animate attributeName="opacity" values="1;0" keyTimes="0;1" dur="1.4492753623188404s" begin="-1.0144927536231882s" repeatCount="indefinite"></animate>
  </rect>
</g><g transform="rotate(108 50 50)">
  <rect x="48.5" y="27" rx="0" ry="0" width="3" height="8" fill="#16fc92">
    <animate attributeName="opacity" values="1;0" keyTimes="0;1" dur="1.4492753623188404s" begin="-0.9661835748792269s" repeatCount="indefinite"></animate>
  </rect>
</g><g transform="rotate(120 50 50)">
  <rect x="48.5" y="27" rx="0" ry="0" width="3" height="8" fill="#16fc92">
    <animate attributeName="opacity" values="1;0" keyTimes="0;1" dur="1.4492753623188404s" begin="-0.9178743961352656s" repeatCount="indefinite"></animate>
  </rect>
</g><g transform="rotate(132 50 50)">
  <rect x="48.5" y="27" rx="0" ry="0" width="3" height="8" fill="#16fc92">
    <animate attributeName="opacity" values="1;0" keyTimes="0;1" dur="1.4492753623188404s" begin="-0.8695652173913042s" repeatCount="indefinite"></animate>
  </rect>
</g><g transform="rotate(144 50 50)">
  <rect x="48.5" y="27" rx="0" ry="0" width="3" height="8" fill="#16fc92">
    <animate attributeName="opacity" values="1;0" keyTimes="0;1" dur="1.4492753623188404s" begin="-0.8212560386473429s" repeatCount="indefinite"></animate>
  </rect>
</g><g transform="rotate(156 50 50)">
  <rect x="48.5" y="27" rx="0" ry="0" width="3" height="8" fill="#16fc92">
    <animate attributeName="opacity" values="1;0" keyTimes="0;1" dur="1.4492753623188404s" begin="-0.7729468599033815s" repeatCount="indefinite"></animate>
  </rect>
</g><g transform="rotate(168 50 50)">
  <rect x="48.5" y="27" rx="0" ry="0" width="3" height="8" fill="#16fc92">
    <animate attributeName="opacity" values="1;0" keyTimes="0;1" dur="1.4492753623188404s" begin="-0.7246376811594202s" repeatCount="indefinite"></animate>
  </rect>
</g><g transform="rotate(180 50 50)">
  <rect x="48.5" y="27" rx="0" ry="0" width="3" height="8" fill="#16fc92">
    <animate attributeName="opacity" values="1;0" keyTimes="0;1" dur="1.4492753623188404s" begin="-0.6763285024154588s" repeatCount="indefinite"></animate>
  </rect>
</g><g transform="rotate(192 50 50)">
  <rect x="48.5" y="27" rx="0" ry="0" width="3" height="8" fill="#16fc92">
    <animate attributeName="opacity" values="1;0" keyTimes="0;1" dur="1.4492753623188404s" begin="-0.6280193236714975s" repeatCount="indefinite"></animate>
  </rect>
</g><g transform="rotate(204 50 50)">
  <rect x="48.5" y="27" rx="0" ry="0" width="3" height="8" fill="#16fc92">
    <animate attributeName="opacity" values="1;0" keyTimes="0;1" dur="1.4492753623188404s" begin="-0.5797101449275361s" repeatCount="indefinite"></animate>
  </rect>
</g><g transform="rotate(216 50 50)">
  <rect x="48.5" y="27" rx="0" ry="0" width="3" height="8" fill="#16fc92">
    <animate attributeName="opacity" values="1;0" keyTimes="0;1" dur="1.4492753623188404s" begin="-0.5314009661835748s" repeatCount="indefinite"></animate>
  </rect>
</g><g transform="rotate(228 50 50)">
  <rect x="48.5" y="27" rx="0" ry="0" width="3" height="8" fill="#16fc92">
    <animate attributeName="opacity" values="1;0" keyTimes="0;1" dur="1.4492753623188404s" begin="-0.48309178743961345s" repeatCount="indefinite"></animate>
  </rect>
</g><g transform="rotate(240 50 50)">
  <rect x="48.5" y="27" rx="0" ry="0" width="3" height="8" fill="#16fc92">
    <animate attributeName="opacity" values="1;0" keyTimes="0;1" dur="1.4492753623188404s" begin="-0.4347826086956521s" repeatCount="indefinite"></animate>
  </rect>
</g><g transform="rotate(252 50 50)">
  <rect x="48.5" y="27" rx="0" ry="0" width="3" height="8" fill="#16fc92">
    <animate attributeName="opacity" values="1;0" keyTimes="0;1" dur="1.4492753623188404s" begin="-0.38647342995169076s" repeatCount="indefinite"></animate>
  </rect>
</g><g transform="rotate(264 50 50)">
  <rect x="48.5" y="27" rx="0" ry="0" width="3" height="8" fill="#16fc92">
    <animate attributeName="opacity" values="1;0" keyTimes="0;1" dur="1.4492753623188404s" begin="-0.3381642512077294s" repeatCount="indefinite"></animate>
  </rect>
</g><g transform="rotate(276 50 50)">
  <rect x="48.5" y="27" rx="0" ry="0" width="3" height="8" fill="#16fc92">
    <animate attributeName="opacity" values="1;0" keyTimes="0;1" dur="1.4492753623188404s" begin="-0.28985507246376807s" repeatCount="indefinite"></animate>
  </rect>
</g><g transform="rotate(288 50 50)">
  <rect x="48.5" y="27" rx="0" ry="0" width="3" height="8" fill="#16fc92">
    <animate attributeName="opacity" values="1;0" keyTimes="0;1" dur="1.4492753623188404s" begin="-0.24154589371980673s" repeatCount="indefinite"></animate>
  </rect>
</g><g transform="rotate(300 50 50)">
  <rect x="48.5" y="27" rx="0" ry="0" width="3" height="8" fill="#16fc92">
    <animate attributeName="opacity" values="1;0" keyTimes="0;1" dur="1.4492753623188404s" begin="-0.19323671497584538s" repeatCount="indefinite"></animate>
  </rect>
</g><g transform="rotate(312 50 50)">
  <rect x="48.5" y="27" rx="0" ry="0" width="3" height="8" fill="#16fc92">
    <animate attributeName="opacity" values="1;0" keyTimes="0;1" dur="1.4492753623188404s" begin="-0.14492753623188404s" repeatCount="indefinite"></animate>
  </rect>
</g><g transform="rotate(324 50 50)">
  <rect x="48.5" y="27" rx="0" ry="0" width="3" height="8" fill="#16fc92">
    <animate attributeName="opacity" values="1;0" keyTimes="0;1" dur="1.4492753623188404s" begin="-0.09661835748792269s" repeatCount="indefinite"></animate>
  </rect>
</g><g transform="rotate(336 50 50)">
  <rect x="48.5" y="27" rx="0" ry="0" width="3" height="8" fill="#16fc92">
    <animate attributeName="opacity" values="1;0" keyTimes="0;1" dur="1.4492753623188404s" begin="-0.048309178743961345s" repeatCount="indefinite"></animate>
  </rect>
</g><g transform="rotate(348 50 50)">
  <rect x="48.5" y="27" rx="0" ry="0" width="3" height="8" fill="#16fc92">
    <animate attributeName="opacity" values="1;0" keyTimes="0;1" dur="1.4492753623188404s" begin="0s" repeatCount="indefinite"></animate>
  </rect>
</g>
<!-- [ldio] generated by https://loading.io/ --></svg>